<svg xmlns:dc="http://purl.org/dc/elements/1.1/" xmlns:cc="http://creativecommons.org/ns#" xmlns:rdf="http://www.w3.org/1999/02/22-rdf-syntax-ns#" xmlns:svg="http://www.w3.org/2000/svg" xmlns="http://www.w3.org/2000/svg" xmlns:sodipodi="http://sodipodi.sourceforge.net/DTD/sodipodi-0.dtd" xmlns:inkscape="http://www.inkscape.org/namespaces/inkscape" sodipodi:docname="distance.svg" inkscape:version="1.0 (4035a4fb49, 2020-05-01)" id="svg90496" viewBox="0 0 47.601574 47.601578" height="47.601578mm" width="47.601574mm"><defs id="defs90490"></defs><metadata></metadata><g transform="translate(-44.234927,-153.84802)" id="layer1" inkscape:groupmode="layer" inkscape:label="Layer 1"><path style="fill:#d9ebeb;fill-opacity:1;fill-rule:nonzero;stroke:none;stroke-width:0.352777" d="m 91.483721,177.64812 c 0,12.9508 -10.497894,23.4487 -23.448698,23.4487 -12.949424,0 -23.447318,-10.4979 -23.447318,-23.4487 0,-12.94943 10.497894,-23.44732 23.447318,-23.44732 12.950804,0 23.448698,10.49789 23.448698,23.44732" id="path88928"></path><path style="fill:none;stroke:#000000;stroke-width:0.705556;stroke-linecap:butt;stroke-linejoin:miter;stroke-miterlimit:10;stroke-opacity:1" d="m 91.483724,177.64812 c 0,12.9508 -10.497894,23.4487 -23.448698,23.4487 -12.949427,0 -23.447321,-10.4979 -23.447321,-23.4487 0,-12.94943 10.497894,-23.44732 23.447321,-23.44732 12.950804,0 23.448698,10.49789 23.448698,23.44732 z m 0,0" id="path88960"></path><path style="fill:#000000;fill-opacity:1;fill-rule:nonzero;stroke:none;stroke-width:0.352777" d="m 64.228883,165.70742 c 1.219563,0.42719 1.860352,1.76251 1.43316,2.98069 -0.427193,1.21957 -1.76251,1.86174 -2.982073,1.43454 -1.218188,-0.42719 -1.860353,-1.76251 -1.43316,-2.98207 0.427193,-1.21957 1.762509,-1.86173 2.982073,-1.43316" id="path88962"></path><path style="fill:#000000;fill-opacity:1;fill-rule:nonzero;stroke:none;stroke-width:0.352777" d="m 71.097025,174.19751 h 1.044554 c 0.31695,-1.14515 1.171331,-2.06981 2.273763,-2.48047 -0.614606,-0.88194 -1.635734,-1.46072 -2.79604,-1.46072 -1.158931,0 -2.180057,0.57878 -2.79466,1.46072 1.102431,0.41066 1.956815,1.33532 2.272383,2.48047" id="path88964"></path><path style="fill:#000000;fill-opacity:1;fill-rule:nonzero;stroke:none;stroke-width:0.352777" d="m 72.395137,165.70329 c 1.218184,0.42856 1.860354,1.76251 1.433161,2.98207 -0.427194,1.21956 -1.762509,1.86173 -2.982077,1.43454 -1.219563,-0.42719 -1.860349,-1.76252 -1.433159,-2.98208 0.427192,-1.21956 1.762513,-1.86173 2.982075,-1.43453" id="path88966"></path><path style="fill:#000000;fill-opacity:1;fill-rule:nonzero;stroke:none;stroke-width:0.352777" d="m 63.453047,184.78084 c -1.883777,0 -3.405131,1.52411 -3.405131,3.40376 v 0.001 c 0,0.29628 0.241155,0.53606 0.536056,0.53606 h 5.739529 c 0.294901,0 0.53468,-0.24116 0.53468,-0.53744 0,-1.87964 -1.519978,-3.40375 -3.405134,-3.40375" id="path88968"></path><path style="fill:#000000;fill-opacity:1;fill-rule:nonzero;stroke:none;stroke-width:0.352777" d="m 64.234397,180.23194 c 1.218184,0.42719 1.860349,1.76251 1.433159,2.9807 -0.427192,1.21956 -1.762513,1.86173 -2.982076,1.43454 -1.219563,-0.4272 -1.860349,-1.76252 -1.43316,-2.98208 0.427193,-1.21956 1.762513,-1.86173 2.982077,-1.43316" id="path88970"></path><path style="fill:#000000;fill-opacity:1;fill-rule:nonzero;stroke:none;stroke-width:0.352777" d="m 71.619302,184.78084 c -1.883777,0 -3.405131,1.52411 -3.405131,3.40376 v 0.001 c 0,0.29628 0.239776,0.53606 0.536056,0.53606 h 5.739529 c 0.294902,0 0.534678,-0.24116 0.534678,-0.53744 0,-1.87964 -1.519976,-3.40375 -3.405132,-3.40375" id="path88972"></path><path style="fill:#000000;fill-opacity:1;fill-rule:nonzero;stroke:none;stroke-width:0.352777" d="m 73.363898,175.18005 c 0,1.28847 1.04869,2.33853 2.338533,2.33853 -1.03904,0 -1.967841,0.4644 -2.592091,1.19614 l 3.741373,2.74505 h 1.721172 c 0.2949,0 0.534676,-0.24115 0.534676,-0.53743 0,-1.87964 -1.519973,-3.40238 -3.403751,-3.40376 1.288465,0 2.338528,-1.05006 2.338528,-2.33853 0,-1.28984 -1.050063,-2.33853 -2.339907,-2.33853 -1.288465,0 -2.338533,1.04869 -2.338533,2.33853" id="path88974"></path><path style="fill:#e8592b;fill-opacity:1;fill-rule:nonzero;stroke:none;stroke-width:0.352777" d="M 78.830576,184.59206 57.043794,168.61508 c -0.300415,-0.22186 -0.724849,-0.15572 -0.946714,0.14607 -0.221862,0.30179 -0.157096,0.72623 0.146071,0.94809 l 21.785407,15.9756 c 0.301792,0.22186 0.726226,0.15709 0.948092,-0.14469 0.221864,-0.30317 0.155718,-0.72623 -0.146074,-0.94809" id="path88976"></path><path style="fill:#000000;fill-opacity:1;fill-rule:nonzero;stroke:none;stroke-width:0.352777" d="m 73.39146,183.96643 -3.757912,-2.75608 c -0.223242,0.35829 -0.352778,0.77997 -0.352778,1.23197 0,1.28984 1.050068,2.33852 2.33991,2.33852 0.706933,0 1.342208,-0.31694 1.77078,-0.81441" id="path88978"></path><path style="fill:#000000;fill-opacity:1;fill-rule:nonzero;stroke:none;stroke-width:0.352777" d="m 69.651465,176.17775 c 0.143316,-0.30179 0.224617,-0.64078 0.224617,-0.9977 0,-1.28984 -1.050064,-2.33853 -2.339908,-2.33853 -0.611847,0 -1.169952,0.23703 -1.58612,0.62288 z m 0,0" id="path88980"></path><path style="fill:#000000;fill-opacity:1;fill-rule:nonzero;stroke:none;stroke-width:0.352777" d="m 65.510457,178.18693 c -0.297656,0.22049 -0.558105,0.48783 -0.770322,0.79238 1.10381,0.41065 1.959572,1.33394 2.275142,2.47908 h 1.043174 c 0.104733,-0.37758 0.267339,-0.73173 0.479559,-1.05144 z m 0,0" id="path88982"></path><path style="fill:#000000;fill-opacity:1;fill-rule:nonzero;stroke:none;stroke-width:0.352777" d="m 62.010242,170.57603 2.834626,2.07808 c 0.385851,-0.41204 0.865406,-0.73587 1.404218,-0.93707 -0.614602,-0.88332 -1.635728,-1.46072 -2.796039,-1.46072 -0.516763,0 -1.004588,0.11438 -1.442805,0.31971" id="path88984"></path><path style="fill:#000000;fill-opacity:1;fill-rule:nonzero;stroke:none;stroke-width:0.352777" d="m 62.167338,178.97931 c -0.614603,-0.88333 -1.637108,-1.46073 -2.796039,-1.46073 1.218187,0 2.22002,-0.93706 2.327507,-2.12769 l -3.230121,-2.36884 c -0.843361,0.35415 -1.437294,1.18787 -1.437294,2.158 0,1.28985 1.050064,2.33853 2.338532,2.33853 -1.883781,0 -3.403756,1.52412 -3.403756,3.40514 0,0.29627 0.23978,0.53467 0.534678,0.53467 h 3.391351 c 0.315574,-1.14514 1.171335,-2.06843 2.275142,-2.47908" id="path88986"></path></g></svg>