<svg xmlns:dc="http://purl.org/dc/elements/1.1/" xmlns:cc="http://creativecommons.org/ns#" xmlns:rdf="http://www.w3.org/1999/02/22-rdf-syntax-ns#" xmlns:svg="http://www.w3.org/2000/svg" xmlns="http://www.w3.org/2000/svg" xmlns:sodipodi="http://sodipodi.sourceforge.net/DTD/sodipodi-0.dtd" xmlns:inkscape="http://www.inkscape.org/namespaces/inkscape" sodipodi:docname="mask.svg" inkscape:version="1.0 (4035a4fb49, 2020-05-01)" id="svg89870" viewBox="0 0 47.601585 47.601578" height="47.601578mm" width="47.601585mm"><defs id="defs89864"></defs><metadata></metadata><g transform="translate(-168.21111,-74.473021)" id="layer1" inkscape:groupmode="layer" inkscape:label="Layer 1"><path style="fill:#d9ebeb;fill-opacity:1;fill-rule:nonzero;stroke:none;stroke-width:0.352777" d="m 215.45992,98.273119 c 0,12.950811 -10.49927,23.448701 -23.4487,23.448701 -12.94943,0 -23.44732,-10.49789 -23.44732,-23.448701 0,-12.94942 10.49789,-23.44731 23.44732,-23.44731 12.94943,0 23.4487,10.49789 23.4487,23.44731" id="path88988"></path><path style="fill:none;stroke:#000000;stroke-width:0.705556;stroke-linecap:butt;stroke-linejoin:miter;stroke-miterlimit:10;stroke-opacity:1" d="m 215.45992,98.273119 c 0,12.950811 -10.49927,23.448701 -23.44871,23.448701 -12.94942,0 -23.44732,-10.49789 -23.44732,-23.448701 0,-12.94942 10.4979,-23.44732 23.44732,-23.44732 12.94944,0 23.44871,10.4979 23.44871,23.44732 z m 0,0" id="path89010"></path><path style="fill:#47b3b0;fill-opacity:1;fill-rule:nonzero;stroke:none;stroke-width:0.352777" d="m 182.69844,96.669089 c 0.47404,-1.79559 0.91501,-3.60219 1.32153,-5.41569 0.091,-0.40239 0.18466,-0.81856 0.42306,-1.1548 0.43959,-0.61736 1.2802,-0.82544 2.03398,-0.75654 0.75517,0.0703 1.46624,0.36793 2.1966,0.56775 3.0303,0.83509 6.23011,0.007 9.34862,-0.37896 0.4947,-0.0606 1.0721,-0.0799 1.40008,0.29352 0.1695,0.1943 0.23288,0.45476 0.28938,0.70556 0.55123,2.47633 0.91227,5.07807 2.28755,7.20852 0.46991,-0.0882 0.68902,-0.62288 0.81855,-1.08314 0.4961,-1.76802 0.26734,-4.49654 0.26734,-6.33347 0,-1.76388 -0.17363,-1.57372 -0.70555,-2.82222 -0.17914,-0.42168 -0.63666,-0.99081 -0.93431,-1.33945 -0.38172,-0.45062 -1.05834,-1.1355 -1.53514,-1.48277 -0.36793,-0.26872 -0.56499,-0.17639 -0.93293,-0.44648 -0.85301,-0.62563 -1.8576,-1.01148 -2.87734,-1.29398 -2.54111,-0.70418 -4.94578,-1.11483 -7.47862,-0.37621 -1.45245,0.42306 -2.82222,1.05834 -4.49653,2.1084 -0.35278,0.22187 -1.14791,1.0666 -1.85347,1.77216 -1.04317,1.04317 -1.16444,1.72117 -1.41111,3.175 -0.31006,1.82452 -0.0248,3.18602 0.21084,5.0133 0.0965,0.75379 0.073,1.92237 0.46715,2.58383 0.4961,0.83095 1.00184,0.0537 1.16032,-0.54433" id="path89012"></path><path style="fill:#ffffff;fill-opacity:1;fill-rule:nonzero;stroke:none;stroke-width:0.352777" d="m 185.44624,101.96351 c 0,0 3.88056,-2.142851 6.52639,-2.130441 2.64584,0.0138 6.52639,2.130441 6.52639,2.130441 0,0 0.3514,7.39318 -1.2361,9.69312 -1.58612,2.30133 -3.35001,2.6541 -5.46668,2.6541 -2.11666,0 -4.38492,-0.98943 -5.19107,-2.78777 -0.80615,-1.79834 -1.15893,-4.62056 -1.15893,-9.55945" id="path89014"></path><path style="fill:none;stroke:#171717;stroke-width:0.705556;stroke-linecap:round;stroke-linejoin:round;stroke-miterlimit:10;stroke-opacity:1" d="m 185.44624,101.61073 -3.52778,-3.880561 c 0,0 -1.41111,-1.41111 -1.76389,0.35278 -0.35277,1.76389 0.35278,6.702781 2.82223,5.644451 l 2.46944,2.46944" id="path89016"></path><path style="fill:none;stroke:#171717;stroke-width:0.705556;stroke-linecap:round;stroke-linejoin:round;stroke-miterlimit:10;stroke-opacity:1" d="m 183.13803,103.88863 c 0,0 -0.40101,3.77996 3.07027,6.74825 0,0 0.29628,1.90997 -1.46761,3.67385" id="path89018"></path><path style="fill:none;stroke:#171717;stroke-width:0.705556;stroke-linecap:round;stroke-linejoin:round;stroke-miterlimit:10;stroke-opacity:1" d="m 185.51101,105.3149 3.11023,-0.88195" id="path89020"></path><path style="fill:none;stroke:#171717;stroke-width:0.705556;stroke-linecap:round;stroke-linejoin:round;stroke-miterlimit:10;stroke-opacity:1" d="m 185.66259,107.90147 c 0,0 1.19476,1.82315 2.95865,2.17593" id="path89022"></path><path style="fill:none;stroke:#171717;stroke-width:0.705556;stroke-linecap:round;stroke-linejoin:round;stroke-miterlimit:10;stroke-opacity:1" d="m 202.73235,97.024619 c 0,0 0.70557,-4.93889 0.35278,-7.76111 -0.33487,-2.68304 -4.17821,-6.96047 -10.92233,-7.07209 l -0.58843,0.004 c -6.61458,0.19568 -10.38214,4.41248 -10.71424,7.06796 -0.35278,2.82222 0.35278,7.76111 0.35278,7.76111" id="path89024"></path><path style="fill:none;stroke:#171717;stroke-width:0.705556;stroke-linecap:round;stroke-linejoin:round;stroke-miterlimit:10;stroke-opacity:1" d="m 192.21103,114.30246 c 4.58336,-0.17225 5.59208,-3.22736 5.93521,-5.2834 0.35278,-2.11666 0.35278,-7.05555 0.35278,-7.05555 -3.87091,-1.80661 -5.66512,-2.102891 -6.35,-2.131831 l -0.42719,0.004 c -0.73588,0.0468 -2.53697,0.383091 -6.27559,2.127691 0,0 0,4.93889 0.35278,7.05555 0.34313,2.05879 1.35323,5.11804 5.95175,5.28478 z m 0,0" id="path89026"></path><path style="fill:none;stroke:#171717;stroke-width:0.705556;stroke-linecap:round;stroke-linejoin:round;stroke-miterlimit:10;stroke-opacity:1" d="m 198.49902,101.61073 3.52778,-3.880561 c 0,0 1.41112,-1.41111 1.76389,0.35278 0.35277,1.76389 -0.35277,6.702781 -2.82223,5.644451 l -2.46944,2.46944" id="path89028"></path><path style="fill:none;stroke:#171717;stroke-width:0.705556;stroke-linecap:round;stroke-linejoin:round;stroke-miterlimit:10;stroke-opacity:1" d="m 200.80723,103.88863 c 0,0 0.40101,3.77996 -3.07027,6.74825 0,0 -0.29628,1.90997 1.46761,3.67385" id="path89030"></path><path style="fill:none;stroke:#171717;stroke-width:0.705556;stroke-linecap:round;stroke-linejoin:round;stroke-miterlimit:10;stroke-opacity:1" d="m 198.43425,105.3149 -3.11023,-0.88195" id="path89032"></path><path style="fill:none;stroke:#171717;stroke-width:0.705556;stroke-linecap:round;stroke-linejoin:round;stroke-miterlimit:10;stroke-opacity:1" d="m 198.28267,107.90147 c 0,0 -1.19476,1.82315 -2.95865,2.17593" id="path89034"></path><path style="fill:none;stroke:#171717;stroke-width:0.705556;stroke-linecap:round;stroke-linejoin:round;stroke-miterlimit:10;stroke-opacity:1" d="m 202.0268,97.730179 c 0,0 -0.70556,0 -1.41111,-3.175 -0.70556,-3.175 -1.05833,-5.29167 -2.11667,-5.29167 -1.05833,0 -2.82222,1.05834 -5.29166,1.05834 h -2.46945 c -2.46944,0 -4.23333,-1.05834 -5.29167,-1.05834 -1.05833,0 -1.41111,2.11667 -2.11666,5.29167 -0.70556,3.175 -1.41111,3.175 -1.41111,3.175" id="path89036"></path></g></svg>